STARTFONT 2.1
COMMENT
COMMENT Converted from OpenType font "Q:\font stuff\winfont\Continuum Medium.ttf" by "otf2bdf 3.0".
COMMENT
FONT -FreeType-Continuum Medium-Medium-R-Normal--18-180-72-72-P-80-ISO10646-1
SIZE 18 72 72
FONTBOUNDINGBOX 21 22 -3 -4
STARTPROPERTIES 19
FOUNDRY "FreeType"
FAMILY_NAME "Continuum Medium"
WEIGHT_NAME "Medium"
SLANT "R"
SETWIDTH_NAME "Normal"
ADD_STYLE_NAME ""
PIXEL_SIZE 14
POINT_SIZE 180
RESOLUTION_X 72
RESOLUTION_Y 72
SPACING "P"
AVERAGE_WIDTH 80
CHARSET_REGISTRY "ISO10646"
CHARSET_ENCODING "1"
FONT_ASCENT 18
FONT_DESCENT 4
COPYRIGHT "Copyright © 1996, 1997 Brøderbund Software. All rights reserved."
_OTF_FONTFILE "Q:\font stuff\winfont\Continuum Medium.ttf"
_OTF_PSNAME "ContinuumMedium"
ENDPROPERTIES
CHARS 246
STARTCHAR 0020
ENCODING 32
SWIDTH 277 0
DWIDTH 5 0
BBX 0 0 0 0
BITMAP
ENDCHAR
STARTCHAR 0021
ENCODING 33
SWIDTH 222 0
DWIDTH 4 0
BBX 2 13 1 0
BITMAP
C0
C0
C0
C0
C0
C0
C0
C0
C0
C0
C0
C0
C0
ENDCHAR
STARTCHAR 0022
ENCODING 34
SWIDTH 277 0
DWIDTH 5 0
BBX 4 4 1 9
BITMAP
F0
E0
E0
E0
ENDCHAR
STARTCHAR 0023
ENCODING 35
SWIDTH 611 0
DWIDTH 11 0
BBX 9 13 1 0
BITMAP
1100
1100
1200
1200
FF80
FF80
2200
FF80
FF00
4400
4400
4400
4800
ENDCHAR
STARTCHAR 0024
ENCODING 36
SWIDTH 555 0
DWIDTH 10 0
BBX 9 15 1 -2
BITMAP
7F80
FF80
C800
C800
C800
C800
FE00
7F00
0B00
0B00
0B00
FF00
FE00
0800
0800
ENDCHAR
STARTCHAR 0025
ENCODING 37
SWIDTH 722 0
DWIDTH 13 0
BBX 12 13 1 0
BITMAP
F8C0
FD80
CD80
CF00
FE00
FE00
0400
0FE0
0BF0
1B30
3330
33F0
63E0
ENDCHAR
STARTCHAR 0026
ENCODING 38
SWIDTH 722 0
DWIDTH 13 0
BBX 11 13 1 0
BITMAP
3E00
7F00
6300
6300
6700
7E00
3800
FCC0
CEC0
C7C0
C380
FFC0
7FE0
ENDCHAR
STARTCHAR 0027
ENCODING 39
SWIDTH 166 0
DWIDTH 3 0
BBX 2 4 1 9
BITMAP
C0
C0
C0
C0
ENDCHAR
STARTCHAR 0028
ENCODING 40
SWIDTH 277 0
DWIDTH 5 0
BBX 3 16 1 -2
BITMAP
60
C0
C0
C0
C0
C0
C0
C0
C0
C0
C0
C0
C0
C0
C0
60
ENDCHAR
STARTCHAR 0029
ENCODING 41
SWIDTH 277 0
DWIDTH 5 0
BBX 3 16 1 -2
BITMAP
C0
C0
60
60
60
60
60
60
60
60
60
60
60
60
C0
C0
ENDCHAR
STARTCHAR 002A
ENCODING 42
SWIDTH 388 0
DWIDTH 7 0
BBX 5 6 1 7
BITMAP
20
A8
F8
60
B8
20
ENDCHAR
STARTCHAR 002B
ENCODING 43
SWIDTH 611 0
DWIDTH 11 0
BBX 9 9 1 2
BITMAP
0C00
0C00
0C00
FF80
FF80
0C00
0C00
0C00
0C00
ENDCHAR
STARTCHAR 002C
ENCODING 44
SWIDTH 166 0
DWIDTH 3 0
BBX 1 4 1 -2
BITMAP
80
80
80
80
ENDCHAR
STARTCHAR 002D
ENCODING 45
SWIDTH 333 0
DWIDTH 6 0
BBX 5 2 1 4
BITMAP
F8
F8
ENDCHAR
STARTCHAR 002E
ENCODING 46
SWIDTH 166 0
DWIDTH 3 0
BBX 1 2 1 0
BITMAP
80
80
ENDCHAR
STARTCHAR 002F
ENCODING 47
SWIDTH 555 0
DWIDTH 10 0
BBX 9 13 1 0
BITMAP
0380
0300
0700
0600
0E00
0C00
1800
1800
3000
3000
6000
E000
C000
ENDCHAR
STARTCHAR 0030
ENCODING 48
SWIDTH 611 0
DWIDTH 11 0
BBX 9 13 1 0
BITMAP
3F00
7F80
E180
C180
C180
C180
C180
C180
C180
C180
C180
7F80
3F00
ENDCHAR
STARTCHAR 0031
ENCODING 49
SWIDTH 611 0
DWIDTH 11 0
BBX 2 13 5 0
BITMAP
C0
C0
C0
C0
C0
C0
C0
C0
C0
C0
C0
C0
C0
ENDCHAR
STARTCHAR 0032
ENCODING 50
SWIDTH 611 0
DWIDTH 11 0
BBX 8 13 2 0
BITMAP
FC
FE
03
03
03
03
7E
FC
C0
C0
C0
FF
FF
ENDCHAR
STARTCHAR 0033
ENCODING 51
SWIDTH 611 0
DWIDTH 11 0
BBX 8 13 1 0
BITMAP
FE
FF
03
03
03
03
1E
1F
03
03
03
FF
FE
ENDCHAR
STARTCHAR 0034
ENCODING 52
SWIDTH 611 0
DWIDTH 11 0
BBX 8 13 1 0
BITMAP
0F
1F
1B
3B
73
63
E3
FF
FF
03
03
03
03
ENDCHAR
STARTCHAR 0035
ENCODING 53
SWIDTH 611 0
DWIDTH 11 0
BBX 8 13 2 0
BITMAP
FF
FF
C0
C0
C0
FC
FE
07
03
03
07
FE
FC
ENDCHAR
STARTCHAR 0036
ENCODING 54
SWIDTH 611 0
DWIDTH 11 0
BBX 9 13 1 0
BITMAP
7F80
FF80
C000
C000
C000
FF00
FF80
C180
C180
C180
C180
FF80
7F00
ENDCHAR
STARTCHAR 0037
ENCODING 55
SWIDTH 611 0
DWIDTH 11 0
BBX 9 13 1 0
BITMAP
FF80
FF80
0380
0300
0300
0600
0600
0C00
0C00
0C00
1800
1800
3000
ENDCHAR
STARTCHAR 0038
ENCODING 56
SWIDTH 611 0
DWIDTH 11 0
BBX 9 13 1 0
BITMAP
7F00
FF80
C180
C180
C180
C180
7F00
FF80
C180
C180
C180
FF80
7F00
ENDCHAR
STARTCHAR 0039
ENCODING 57
SWIDTH 611 0
DWIDTH 11 0
BBX 9 13 1 0
BITMAP
7F00
FF80
C180
C180
C180
C180
FF80
7F80
0180
0180
0180
FF80
FF00
ENDCHAR
STARTCHAR 003A
ENCODING 58
SWIDTH 222 0
DWIDTH 4 0
BBX 2 8 1 0
BITMAP
C0
C0
00
00
00
80
C0
80
ENDCHAR
STARTCHAR 003B
ENCODING 59
SWIDTH 222 0
DWIDTH 4 0
BBX 2 10 1 -2
BITMAP
C0
C0
80
00
00
00
C0
C0
C0
80
ENDCHAR
STARTCHAR 003C
ENCODING 60
SWIDTH 500 0
DWIDTH 9 0
BBX 9 7 0 3
BITMAP
0100
0F00
7E00
F800
7E00
0F80
0100
ENDCHAR
STARTCHAR 003D
ENCODING 61
SWIDTH 666 0
DWIDTH 12 0
BBX 9 5 1 4
BITMAP
FF80
FF80
0000
FF80
FF80
ENDCHAR
STARTCHAR 003E
ENCODING 62
SWIDTH 500 0
DWIDTH 9 0
BBX 9 7 0 3
BITMAP
C000
F000
7E00
0F80
3F00
F800
C000
ENDCHAR
STARTCHAR 003F
ENCODING 63
SWIDTH 500 0
DWIDTH 9 0
BBX 8 13 0 0
BITMAP
FE
FF
03
01
01
01
1F
30
30
30
30
30
30
ENDCHAR
STARTCHAR 0040
ENCODING 64
SWIDTH 722 0
DWIDTH 13 0
BBX 12 13 1 0
BITMAP
3FC0
FFE0
C060
DF30
DFB0
DFB0
DFB0
D9A0
DFE0
DFC0
C030
FFE0
3FC0
ENDCHAR
STARTCHAR 0041
ENCODING 65
SWIDTH 611 0
DWIDTH 11 0
BBX 11 13 0 0
BITMAP
0600
0E00
0E00
1B00
1B00
1B00
3180
3180
7FC0
7FC0
60C0
E0E0
C060
ENDCHAR
STARTCHAR 0042
ENCODING 66
SWIDTH 611 0
DWIDTH 11 0
BBX 9 13 1 0
BITMAP
FF00
FF80
C180
C180
C180
C180
FF00
FF80
C180
C180
C180
FF80
FF00
ENDCHAR
STARTCHAR 0043
ENCODING 67
SWIDTH 555 0
DWIDTH 10 0
BBX 8 13 1 0
BITMAP
7F
FF
C0
C0
C0
C0
C0
C0
C0
C0
C0
FF
7F
ENDCHAR
STARTCHAR 0044
ENCODING 68
SWIDTH 611 0
DWIDTH 11 0
BBX 9 13 1 0
BITMAP
FF00
FF80
C180
C180
C180
C180
C180
C180
C180
C180
C180
FF80
FF00
ENDCHAR
STARTCHAR 0045
ENCODING 69
SWIDTH 555 0
DWIDTH 10 0
BBX 8 13 1 0
BITMAP
7F
FF
C0
C0
C0
C0
FF
FF
C0
C0
C0
FF
7F
ENDCHAR
STARTCHAR 0046
ENCODING 70
SWIDTH 555 0
DWIDTH 10 0
BBX 8 13 1 0
BITMAP
7F
FF
C0
C0
C0
C0
FF
FF
C0
C0
C0
C0
C0
ENDCHAR
STARTCHAR 0047
ENCODING 71
SWIDTH 611 0
DWIDTH 11 0
BBX 9 13 1 0
BITMAP
7F00
FF00
C000
C000
C000
C000
C180
C180
C180
C180
C180
FF80
3F00
ENDCHAR
STARTCHAR 0048
ENCODING 72
SWIDTH 611 0
DWIDTH 11 0
BBX 9 13 1 0
BITMAP
C180
C180
C180
C180
C180
C180
FF80
FF80
C180
C180
C180
C180
C180
ENDCHAR
STARTCHAR 0049
ENCODING 73
SWIDTH 222 0
DWIDTH 4 0
BBX 2 13 1 0
BITMAP
C0
C0
C0
C0
C0
C0
C0
C0
C0
C0
C0
C0
C0
ENDCHAR
STARTCHAR 004A
ENCODING 74
SWIDTH 277 0
DWIDTH 5 0
BBX 4 13 0 0
BITMAP
30
30
30
30
30
30
30
30
30
30
30
F0
E0
ENDCHAR
STARTCHAR 004B
ENCODING 75
SWIDTH 555 0
DWIDTH 10 0
BBX 9 13 1 0
BITMAP
C380
C300
C600
CE00
DC00
D800
F000
F800
DC00
CC00
C600
C300
C180
ENDCHAR
STARTCHAR 004C
ENCODING 76
SWIDTH 500 0
DWIDTH 9 0
BBX 8 13 1 0
BITMAP
C0
C0
C0
C0
C0
C0
C0
C0
C0
C0
C0
FF
7F
ENDCHAR
STARTCHAR 004D
ENCODING 77
SWIDTH 833 0
DWIDTH 15 0
BBX 13 13 1 0
BITMAP
6038
F078
F078
F878
D8D8
D8D8
D8D8
CD98
CD98
CD98
CF18
C718
C718
ENDCHAR
STARTCHAR 004E
ENCODING 78
SWIDTH 611 0
DWIDTH 11 0
BBX 9 13 1 -1
BITMAP
E180
F180
F180
F980
D980
D980
CD80
CD80
CF80
C780
C780
C380
C380
ENDCHAR
STARTCHAR 004F
ENCODING 79
SWIDTH 611 0
DWIDTH 11 0
BBX 9 13 1 0
BITMAP
7F00
7F80
C180
C180
C180
C180
C180
C180
C180
C180
C180
7F80
3F00
ENDCHAR
STARTCHAR 0050
ENCODING 80
SWIDTH 611 0
DWIDTH 11 0
BBX 9 13 1 0
BITMAP
FF00
FF80
C180
C180
C180
C180
FF80
FF00
C000
C000
C000
C000
C000
ENDCHAR
STARTCHAR 0051
ENCODING 81
SWIDTH 611 0
DWIDTH 11 0
BBX 9 15 1 -2
BITMAP
7F00
FF80
C180
C180
C180
C180
C180
C180
C180
C180
C180
FF80
7F00
0700
0380
ENDCHAR
STARTCHAR 0052
ENCODING 82
SWIDTH 611 0
DWIDTH 11 0
BBX 9 13 1 0
BITMAP
FF00
FF80
C180
C180
C180
C180
FF80
FF00
DC00
CC00
C600
C300
C380
ENDCHAR
STARTCHAR 0053
ENCODING 83
SWIDTH 555 0
DWIDTH 10 0
BBX 8 13 1 0
BITMAP
7F
FF
C0
C0
C0
C0
FE
7F
03
03
03
FE
FE
ENDCHAR
STARTCHAR 0054
ENCODING 84
SWIDTH 388 0
DWIDTH 7 0
BBX 8 13 0 0
BITMAP
FF
FF
18
18
18
18
18
18
18
18
18
18
18
ENDCHAR
STARTCHAR 0055
ENCODING 85
SWIDTH 611 0
DWIDTH 11 0
BBX 9 13 1 0
BITMAP
C180
C180
C180
C180
C180
C180
C180
C180
C180
C180
C180
FF80
7F00
ENDCHAR
STARTCHAR 0056
ENCODING 86
SWIDTH 611 0
DWIDTH 11 0
BBX 11 13 0 0
BITMAP
C060
C0C0
60C0
60C0
7180
3180
3180
3B00
1B00
1B00
0E00
0E00
0E00
ENDCHAR
STARTCHAR 0057
ENCODING 87
SWIDTH 833 0
DWIDTH 15 0
BBX 15 13 0 0
BITMAP
C386
E38C
638C
638C
678C
66DC
36D8
36D8
36D8
3CD8
3C70
1C70
1C70
ENDCHAR
STARTCHAR 0058
ENCODING 88
SWIDTH 611 0
DWIDTH 11 0
BBX 11 13 0 0
BITMAP
E060
70C0
31C0
3B80
1F00
0F00
0E00
0F00
1B00
3980
31C0
60E0
E060
ENDCHAR
STARTCHAR 0059
ENCODING 89
SWIDTH 555 0
DWIDTH 10 0
BBX 10 13 0 0
BITMAP
C0C0
61C0
6180
3300
3700
1E00
1C00
0C00
0C00
0C00
0C00
0C00
0C00
ENDCHAR
STARTCHAR 005A
ENCODING 90
SWIDTH 500 0
DWIDTH 9 0
BBX 8 13 1 0
BITMAP
FE
FF
07
06
0C
1C
18
30
70
60
C0
FF
FF
ENDCHAR
STARTCHAR 005B
ENCODING 91
SWIDTH 277 0
DWIDTH 5 0
BBX 3 16 1 -2
BITMAP
E0
E0
C0
C0
C0
C0
C0
C0
C0
C0
C0
C0
C0
C0
E0
E0
ENDCHAR
STARTCHAR 005C
ENCODING 92
SWIDTH 611 0
DWIDTH 11 0
BBX 9 13 1 0
BITMAP
C000
E000
6000
7000
3000
3800
1800
0C00
0C00
0600
0700
0300
0380
ENDCHAR
STARTCHAR 005D
ENCODING 93
SWIDTH 277 0
DWIDTH 5 0
BBX 3 16 1 -2
BITMAP
E0
E0
60
60
60
60
60
60
60
60
60
60
60
60
E0
E0
ENDCHAR
STARTCHAR 005E
ENCODING 94
SWIDTH 444 0
DWIDTH 8 0
BBX 8 7 0 5
BITMAP
18
14
24
22
42
41
81
ENDCHAR
STARTCHAR 005F
ENCODING 95
SWIDTH 555 0
DWIDTH 10 0
BBX 10 1 0 -2
BITMAP
FFC0
ENDCHAR
STARTCHAR 0060
ENCODING 96
SWIDTH 333 0
DWIDTH 6 0
BBX 2 2 2 11
BITMAP
80
40
ENDCHAR
STARTCHAR 0061
ENCODING 97
SWIDTH 555 0
DWIDTH 10 0
BBX 8 10 1 0
BITMAP
FE
FF
03
7F
FF
C3
C3
C3
FF
7E
ENDCHAR
STARTCHAR 0062
ENCODING 98
SWIDTH 555 0
DWIDTH 10 0
BBX 8 13 1 0
BITMAP
C0
C0
C0
FE
FF
C3
C3
C3
C3
C3
C3
FF
7E
ENDCHAR
STARTCHAR 0063
ENCODING 99
SWIDTH 444 0
DWIDTH 8 0
BBX 6 10 1 0
BITMAP
7C
FC
C0
C0
C0
C0
C0
C0
FC
7C
ENDCHAR
STARTCHAR 0064
ENCODING 100
SWIDTH 555 0
DWIDTH 10 0
BBX 8 13 1 0
BITMAP
03
03
03
7F
FF
C3
C3
C3
C3
C3
C3
FF
7E
ENDCHAR
STARTCHAR 0065
ENCODING 101
SWIDTH 555 0
DWIDTH 10 0
BBX 8 10 1 0
BITMAP
7E
FF
C3
C7
CF
FC
F0
C0
FF
7F
ENDCHAR
STARTCHAR 0066
ENCODING 102
SWIDTH 222 0
DWIDTH 4 0
BBX 3 13 1 0
BITMAP
60
E0
C0
E0
E0
C0
C0
C0
C0
C0
C0
C0
C0
ENDCHAR
STARTCHAR 0067
ENCODING 103
SWIDTH 555 0
DWIDTH 10 0
BBX 8 13 1 -3
BITMAP
7E
FF
C3
C3
C3
C3
C3
C3
FF
7F
03
FF
FE
ENDCHAR
STARTCHAR 0068
ENCODING 104
SWIDTH 555 0
DWIDTH 10 0
BBX 8 13 1 0
BITMAP
C0
C0
C0
FE
FF
C3
C3
C3
C3
C3
C3
C3
C3
ENDCHAR
STARTCHAR 0069
ENCODING 105
SWIDTH 222 0
DWIDTH 4 0
BBX 2 13 1 0
BITMAP
C0
C0
00
C0
C0
C0
C0
C0
C0
C0
C0
C0
C0
ENDCHAR
STARTCHAR 006A
ENCODING 106
SWIDTH 222 0
DWIDTH 4 0
BBX 3 16 0 -3
BITMAP
40
40
00
60
60
60
60
60
60
60
60
60
60
60
C0
C0
ENDCHAR
STARTCHAR 006B
ENCODING 107
SWIDTH 500 0
DWIDTH 9 0
BBX 8 13 1 0
BITMAP
C0
C0
C0
C7
CE
CC
D8
F8
F8
D8
CC
C6
C3
ENDCHAR
STARTCHAR 006C
ENCODING 108
SWIDTH 222 0
DWIDTH 4 0
BBX 2 13 1 0
BITMAP
C0
C0
C0
C0
C0
C0
C0
C0
C0
C0
C0
C0
C0
ENDCHAR
STARTCHAR 006D
ENCODING 109
SWIDTH 722 0
DWIDTH 13 0
BBX 11 10 1 0
BITMAP
7BC0
FFE0
CC60
CC60
CC60
CC60
CC60
CC60
CC60
CC60
ENDCHAR
STARTCHAR 006E
ENCODING 110
SWIDTH 555 0
DWIDTH 10 0
BBX 8 10 1 0
BITMAP
7E
FF
C3
C3
C3
C3
C3
C3
C3
C3
ENDCHAR
STARTCHAR 006F
ENCODING 111
SWIDTH 555 0
DWIDTH 10 0
BBX 8 10 1 0
BITMAP
7E
FF
C3
C3
C3
C3
C3
C3
FF
7E
ENDCHAR
STARTCHAR 0070
ENCODING 112
SWIDTH 555 0
DWIDTH 10 0
BBX 8 13 1 -3
BITMAP
7E
FF
C3
C3
C3
C3
C3
C3
FF
FE
C0
C0
C0
ENDCHAR
STARTCHAR 0071
ENCODING 113
SWIDTH 555 0
DWIDTH 10 0
BBX 8 13 1 -3
BITMAP
7E
FF
C3
C3
C3
C3
C3
C3
FF
7F
03
03
03
ENDCHAR
STARTCHAR 0072
ENCODING 114
SWIDTH 277 0
DWIDTH 5 0
BBX 3 10 1 0
BITMAP
60
E0
C0
C0
C0
C0
C0
C0
C0
C0
ENDCHAR
STARTCHAR 0073
ENCODING 115
SWIDTH 500 0
DWIDTH 9 0
BBX 7 10 1 0
BITMAP
FE
FE
C0
C0
FC
FE
06
06
FE
FC
ENDCHAR
STARTCHAR 0074
ENCODING 116
SWIDTH 222 0
DWIDTH 4 0
BBX 3 13 1 0
BITMAP
C0
C0
C0
E0
E0
C0
C0
C0
C0
C0
C0
C0
C0
ENDCHAR
STARTCHAR 0075
ENCODING 117
SWIDTH 555 0
DWIDTH 10 0
BBX 8 10 1 0
BITMAP
C3
C3
C3
C3
C3
C3
C3
C3
FF
7E
ENDCHAR
STARTCHAR 0076
ENCODING 118
SWIDTH 500 0
DWIDTH 9 0
BBX 9 10 0 0
BITMAP
C180
6380
6300
6300
3700
3600
3600
1C00
1C00
1C00
ENDCHAR
STARTCHAR 0077
ENCODING 119
SWIDTH 722 0
DWIDTH 13 0
BBX 13 10 0 0
BITMAP
C318
E718
6730
6730
6FB0
6DB0
3DE0
3DE0
38E0
38E0
ENDCHAR
STARTCHAR 0078
ENCODING 120
SWIDTH 500 0
DWIDTH 9 0
BBX 9 10 0 0
BITMAP
E380
E300
7600
3E00
1C00
1C00
3C00
3600
6700
E300
ENDCHAR
STARTCHAR 0079
ENCODING 121
SWIDTH 555 0
DWIDTH 10 0
BBX 8 13 1 -3
BITMAP
C3
C3
C3
C3
C3
C3
C3
C3
FF
7F
03
FF
FE
ENDCHAR
STARTCHAR 007A
ENCODING 122
SWIDTH 555 0
DWIDTH 10 0
BBX 9 10 0 0
BITMAP
7F80
7F80
0300
0600
0C00
3800
7000
E000
7F80
7F80
ENDCHAR
STARTCHAR 007B
ENCODING 123
SWIDTH 333 0
DWIDTH 6 0
BBX 3 17 1 -2
BITMAP
60
60
60
60
60
60
60
60
80
60
60
60
60
60
60
60
60
ENDCHAR
STARTCHAR 007C
ENCODING 124
SWIDTH 222 0
DWIDTH 4 0
BBX 2 13 1 0
BITMAP
C0
C0
C0
C0
C0
C0
C0
C0
C0
C0
C0
C0
C0
ENDCHAR
STARTCHAR 007D
ENCODING 125
SWIDTH 333 0
DWIDTH 6 0
BBX 3 17 2 -2
BITMAP
C0
C0
C0
C0
C0
C0
C0
C0
60
C0
C0
C0
C0
C0
C0
C0
C0
ENDCHAR
STARTCHAR 007E
ENCODING 126
SWIDTH 555 0
DWIDTH 10 0
BBX 8 3 1 3
BITMAP
70
FF
8E
ENDCHAR
STARTCHAR 00A0
ENCODING 160
SWIDTH 277 0
DWIDTH 5 0
BBX 0 0 0 0
BITMAP
ENDCHAR
STARTCHAR 00A1
ENCODING 161
SWIDTH 222 0
DWIDTH 4 0
BBX 2 13 1 0
BITMAP
C0
C0
C0
C0
C0
C0
C0
C0
C0
C0
C0
C0
C0
ENDCHAR
STARTCHAR 00A2
ENCODING 162
SWIDTH 444 0
DWIDTH 8 0
BBX 6 11 1 -1
BITMAP
7C
FC
D0
D0
D0
D0
D0
D0
FC
7C
10
ENDCHAR
STARTCHAR 00A3
ENCODING 163
SWIDTH 611 0
DWIDTH 11 0
BBX 10 13 1 0
BITMAP
3E00
3F00
3300
3000
3000
FE00
FE00
3000
3000
7000
60C0
FF80
FF80
ENDCHAR
STARTCHAR 00A4
ENCODING 164
SWIDTH 555 0
DWIDTH 10 0
BBX 8 8 1 1
BITMAP
FE
FE
C7
C3
C3
C7
FE
FE
ENDCHAR
STARTCHAR 00A5
ENCODING 165
SWIDTH 555 0
DWIDTH 10 0
BBX 10 13 0 0
BITMAP
C180
6180
7300
3700
3E00
FFC0
FFC0
FFC0
FFC0
0C00
0C00
0C00
0C00
ENDCHAR
STARTCHAR 00A6
ENCODING 166
SWIDTH 277 0
DWIDTH 5 0
BBX 2 13 2 0
BITMAP
C0
C0
C0
C0
C0
00
00
00
C0
C0
C0
C0
C0
ENDCHAR
STARTCHAR 00A7
ENCODING 167
SWIDTH 555 0
DWIDTH 10 0
BBX 8 16 1 -2
BITMAP
3C
7E
60
60
70
FC
CE
C7
F3
7E
0E
06
03
C6
FE
3C
ENDCHAR
STARTCHAR 00A8
ENCODING 168
SWIDTH 444 0
DWIDTH 8 0
BBX 4 2 2 10
BITMAP
90
90
ENDCHAR
STARTCHAR 00A9
ENCODING 169
SWIDTH 777 0
DWIDTH 14 0
BBX 12 13 1 0
BITMAP
7FC0
FFE0
C070
CF30
CF30
CC30
CC30
CC30
CF30
CF30
C070
FFE0
7FC0
ENDCHAR
STARTCHAR 00AA
ENCODING 170
SWIDTH 388 0
DWIDTH 7 0
BBX 6 8 0 5
BITMAP
78
78
18
78
F8
74
00
F8
ENDCHAR
STARTCHAR 00AB
ENCODING 171
SWIDTH 555 0
DWIDTH 10 0
BBX 6 6 2 2
BITMAP
20
44
98
90
4C
20
ENDCHAR
STARTCHAR 00AC
ENCODING 172
SWIDTH 611 0
DWIDTH 11 0
BBX 9 5 1 2
BITMAP
FF80
FF80
0180
0180
0180
ENDCHAR
STARTCHAR 00AD
ENCODING 173
SWIDTH 611 0
DWIDTH 11 0
BBX 9 1 1 4
BITMAP
FF80
ENDCHAR
STARTCHAR 00AE
ENCODING 174
SWIDTH 777 0
DWIDTH 14 0
BBX 12 13 1 0
BITMAP
7FC0
FFE0
C070
CF30
CFB0
CDB0
CFB0
CF30
CE30
CD30
C070
FFE0
7FC0
ENDCHAR
STARTCHAR 00AF
ENCODING 175
SWIDTH 444 0
DWIDTH 8 0
BBX 6 2 2 10
BITMAP
FC
FC
ENDCHAR
STARTCHAR 00B0
ENCODING 176
SWIDTH 388 0
DWIDTH 7 0
BBX 5 6 1 7
BITMAP
70
98
88
88
98
70
ENDCHAR
STARTCHAR 00B1
ENCODING 177
SWIDTH 611 0
DWIDTH 11 0
BBX 9 9 1 0
BITMAP
1800
1800
1800
FF80
FF80
1800
1800
FF80
FF80
ENDCHAR
STARTCHAR 00B4
ENCODING 180
SWIDTH 333 0
DWIDTH 6 0
BBX 2 3 2 9
BITMAP
40
C0
80
ENDCHAR
STARTCHAR 00B5
ENCODING 181
SWIDTH 500 0
DWIDTH 9 0
BBX 7 12 1 -4
BITMAP
C6
C6
C6
C6
C6
C6
FE
FC
C0
C0
C0
C0
ENDCHAR
STARTCHAR 00B6
ENCODING 182
SWIDTH 555 0
DWIDTH 10 0
BBX 9 16 0 -3
BITMAP
3F80
7F80
F980
F980
F980
7980
3980
1980
1980
1980
1980
1980
1980
1980
1980
1980
ENDCHAR
STARTCHAR 00B7
ENCODING 183
SWIDTH 222 0
DWIDTH 4 0
BBX 2 2 1 4
BITMAP
C0
C0
ENDCHAR
STARTCHAR 00B8
ENCODING 184
SWIDTH 388 0
DWIDTH 7 0
BBX 2 3 3 -3
BITMAP
40
C0
80
ENDCHAR
STARTCHAR 00BA
ENCODING 186
SWIDTH 388 0
DWIDTH 7 0
BBX 6 8 0 5
BITMAP
38
7C
EC
EC
7C
38
00
F8
ENDCHAR
STARTCHAR 00BB
ENCODING 187
SWIDTH 555 0
DWIDTH 10 0
BBX 6 6 2 2
BITMAP
10
88
64
24
C8
10
ENDCHAR
STARTCHAR 00BF
ENCODING 191
SWIDTH 500 0
DWIDTH 9 0
BBX 8 13 0 0
BITMAP
0C
0C
06
06
06
06
7C
40
C0
C0
C0
7F
7F
ENDCHAR
STARTCHAR 00C0
ENCODING 192
SWIDTH 611 0
DWIDTH 11 0
BBX 11 18 0 0
BITMAP
1000
0800
0400
0000
0000
0600
0E00
0E00
1B00
1B00
1B00
3180
3180
7FC0
7FC0
60C0
E0E0
C060
ENDCHAR
STARTCHAR 00C1
ENCODING 193
SWIDTH 611 0
DWIDTH 11 0
BBX 11 17 0 1
BITMAP
0400
0800
0000
0000
0600
0E00
0F00
1F00
1B00
1B80
3980
3180
3FC0
7FC0
60C0
6060
C060
ENDCHAR
STARTCHAR 00C2
ENCODING 194
SWIDTH 611 0
DWIDTH 11 0
BBX 11 18 0 0
BITMAP
0400
0A00
1100
0000
0000
0600
0E00
0F00
1F00
1B00
1B80
3980
3180
3FC0
7FC0
60C0
6060
C060
ENDCHAR
STARTCHAR 00C3
ENCODING 195
SWIDTH 611 0
DWIDTH 11 0
BBX 11 17 0 0
BITMAP
1800
3F00
0600
0000
0600
0E00
0F00
1F00
1B00
1B80
3980
3180
3FC0
7FC0
60C0
6060
C060
ENDCHAR
STARTCHAR 00C4
ENCODING 196
SWIDTH 611 0
DWIDTH 11 0
BBX 11 17 0 0
BITMAP
3600
3600
0000
0000
0600
0E00
0F00
1F00
1B00
1B80
3980
3180
3FC0
7FC0
60C0
6060
C060
ENDCHAR
STARTCHAR 00C5
ENCODING 197
SWIDTH 611 0
DWIDTH 11 0
BBX 11 18 0 0
BITMAP
0E00
0A00
0E00
0000
0000
0600
0E00
0F00
1F00
1B00
1B80
3980
3180
3FC0
7FC0
60C0
6060
C060
ENDCHAR
STARTCHAR 00C6
ENCODING 198
SWIDTH 944 0
DWIDTH 17 0
BBX 17 13 0 0
BITMAP
01FC00
01FC00
038000
038000
078000
06FE00
0CFE00
1CC000
1FE000
3FE000
706000
607F00
E03F80
ENDCHAR
STARTCHAR 00C7
ENCODING 199
SWIDTH 722 0
DWIDTH 13 0
BBX 11 17 1 -4
BITMAP
1F00
3FC0
70E0
E060
C000
C000
C000
C000
C020
C060
4060
6040
3080
0F00
0800
0600
1E00
ENDCHAR
STARTCHAR 00C8
ENCODING 200
SWIDTH 611 0
DWIDTH 11 0
BBX 8 18 1 0
BITMAP
18
08
04
00
00
7F
FF
C0
C0
C0
C0
FF
FF
C0
C0
C0
FF
7F
ENDCHAR
STARTCHAR 00C9
ENCODING 201
SWIDTH 611 0
DWIDTH 11 0
BBX 8 17 1 1
BITMAP
08
10
00
00
7F
FF
C0
C0
C0
C0
FF
FF
C0
C0
C0
FF
7F
ENDCHAR
STARTCHAR 00CA
ENCODING 202
SWIDTH 555 0
DWIDTH 10 0
BBX 8 18 1 0
BITMAP
08
14
22
00
00
7F
FF
C0
C0
C0
C0
FF
FF
C0
C0
C0
FF
7F
ENDCHAR
STARTCHAR 00CB
ENCODING 203
SWIDTH 611 0
DWIDTH 11 0
BBX 8 17 1 0
BITMAP
36
36
00
00
7F
FF
C0
C0
C0
C0
FF
FF
C0
C0
C0
FF
7F
ENDCHAR
STARTCHAR 00CC
ENCODING 204
SWIDTH 277 0
DWIDTH 5 0
BBX 3 18 1 0
BITMAP
80
C0
40
00
00
60
60
60
60
60
60
60
60
60
60
60
60
60
ENDCHAR
STARTCHAR 00CD
ENCODING 205
SWIDTH 277 0
DWIDTH 5 0
BBX 2 17 1 1
BITMAP
40
80
00
00
C0
C0
C0
C0
C0
C0
C0
C0
C0
C0
C0
C0
C0
ENDCHAR
STARTCHAR 00CE
ENCODING 206
SWIDTH 277 0
DWIDTH 5 0
BBX 5 18 0 0
BITMAP
20
50
88
00
00
60
60
60
60
60
60
60
60
60
60
60
60
60
ENDCHAR
STARTCHAR 00CF
ENCODING 207
SWIDTH 277 0
DWIDTH 5 0
BBX 5 17 -1 0
BITMAP
D8
D8
00
00
30
30
30
30
30
30
30
30
30
30
30
30
30
ENDCHAR
STARTCHAR 00D0
ENCODING 208
SWIDTH 722 0
DWIDTH 13 0
BBX 12 13 0 0
BITMAP
7F80
7FC0
60E0
6070
6030
6030
FE30
FE30
6030
6060
60E0
7FC0
7F80
ENDCHAR
STARTCHAR 00D1
ENCODING 209
SWIDTH 611 0
DWIDTH 11 0
BBX 9 17 1 -1
BITMAP
3000
7E00
0C00
0000
E180
F180
F180
F180
D980
D980
DD80
CD80
CD80
C780
C780
C380
C380
ENDCHAR
STARTCHAR 00D2
ENCODING 210
SWIDTH 611 0
DWIDTH 11 0
BBX 9 18 1 0
BITMAP
1800
0C00
0400
0000
0000
7F00
7F80
C180
C180
C180
C180
C180
C180
C180
C180
C180
7F80
3F00
ENDCHAR
STARTCHAR 00D3
ENCODING 211
SWIDTH 611 0
DWIDTH 11 0
BBX 9 15 1 1
BITMAP
0400
0800
7F00
FF80
C180
C180
C180
C180
C180
C180
C180
C180
C180
7F80
3F00
ENDCHAR
STARTCHAR 00D4
ENCODING 212
SWIDTH 666 0
DWIDTH 12 0
BBX 9 17 1 0
BITMAP
0400
0A00
1100
0000
7F00
FF80
C180
C180
C180
C180
C180
C180
C180
C180
C180
7F80
3F00
ENDCHAR
STARTCHAR 00D5
ENCODING 213
SWIDTH 611 0
DWIDTH 11 0
BBX 9 17 1 0
BITMAP
1800
3F00
0600
0000
7F00
FF80
C180
C180
C180
C180
C180
C180
C180
C180
C180
7F80
3F00
ENDCHAR
STARTCHAR 00D6
ENCODING 214
SWIDTH 611 0
DWIDTH 11 0
BBX 9 17 1 0
BITMAP
3600
3600
0000
0000
7F00
FF80
C180
C180
C180
C180
C180
C180
C180
C180
C180
7F80
3F00
ENDCHAR
STARTCHAR 00D7
ENCODING 215
SWIDTH 611 0
DWIDTH 11 0
BBX 8 9 1 0
BITMAP
80
41
22
14
08
14
22
41
80
ENDCHAR
STARTCHAR 00D8
ENCODING 216
SWIDTH 777 0
DWIDTH 14 0
BBX 14 13 0 1
BITMAP
0FC8
1FF0
3830
70D8
6198
630C
670C
6E0C
5C18
7818
3070
7FF0
CFC0
ENDCHAR
STARTCHAR 00D9
ENCODING 217
SWIDTH 611 0
DWIDTH 11 0
BBX 9 18 1 0
BITMAP
1000
1800
0C00
0000
0000
C180
C180
C180
C180
C180
C180
C180
C180
C180
C180
C180
FF80
7F00
ENDCHAR
STARTCHAR 00DA
ENCODING 218
SWIDTH 611 0
DWIDTH 11 0
BBX 9 14 1 1
BITMAP
0800
D180
C180
C180
C180
C180
C180
C180
C180
C180
C180
C180
FF80
7F00
ENDCHAR
STARTCHAR 00DB
ENCODING 219
SWIDTH 611 0
DWIDTH 11 0
BBX 9 17 1 0
BITMAP
0800
1400
2200
0000
C180
C180
C180
C180
C180
C180
C180
C180
C180
C180
C180
FF80
7F00
ENDCHAR
STARTCHAR 00DC
ENCODING 220
SWIDTH 611 0
DWIDTH 11 0
BBX 9 17 1 0
BITMAP
3600
3600
0000
0000
C180
C180
C180
C180
C180
C180
C180
C180
C180
C180
C180
FF80
7F00
ENDCHAR
STARTCHAR 00DD
ENCODING 221
SWIDTH 611 0
DWIDTH 11 0
BBX 11 16 0 1
BITMAP
0400
0800
0000
E0E0
60C0
7180
3380
3B00
1E00
1E00
0C00
0C00
0C00
0C00
0C00
0C00
ENDCHAR
STARTCHAR 00DE
ENCODING 222
SWIDTH 666 0
DWIDTH 12 0
BBX 10 13 2 0
BITMAP
C000
C000
FF00
FF80
C180
C1C0
C180
C180
FF80
FF00
C000
C000
C000
ENDCHAR
STARTCHAR 00DF
ENCODING 223
SWIDTH 555 0
DWIDTH 10 0
BBX 8 15 1 -1
BITMAP
3C
7E
66
C6
C6
C6
CC
CE
C3
C3
C3
C3
C3
CE
CC
ENDCHAR
STARTCHAR 00E0
ENCODING 224
SWIDTH 555 0
DWIDTH 10 0
BBX 8 14 1 0
BITMAP
20
30
08
00
FE
FF
03
7F
FF
C3
C3
C3
FF
7E
ENDCHAR
STARTCHAR 00E1
ENCODING 225
SWIDTH 555 0
DWIDTH 10 0
BBX 8 13 1 1
BITMAP
10
20
00
FE
FF
03
7F
FF
C3
C3
C3
FF
7E
ENDCHAR
STARTCHAR 00E2
ENCODING 226
SWIDTH 555 0
DWIDTH 10 0
BBX 8 14 1 0
BITMAP
08
14
22
00
FE
FF
03
7F
FF
C3
C3
C3
FF
7E
ENDCHAR
STARTCHAR 00E3
ENCODING 227
SWIDTH 555 0
DWIDTH 10 0
BBX 8 13 1 0
BITMAP
30
7E
0C
FE
FF
03
7F
FF
C3
C3
C3
FF
7E
ENDCHAR
STARTCHAR 00E4
ENCODING 228
SWIDTH 555 0
DWIDTH 10 0
BBX 8 13 1 0
BITMAP
6C
6C
00
FE
FF
03
7F
FF
C3
C3
C3
FF
7E
ENDCHAR
STARTCHAR 00E5
ENCODING 229
SWIDTH 555 0
DWIDTH 10 0
BBX 8 14 1 0
BITMAP
1C
14
1C
00
FE
FF
03
7F
FF
C3
C3
C3
FF
7E
ENDCHAR
STARTCHAR 00E6
ENCODING 230
SWIDTH 888 0
DWIDTH 16 0
BBX 14 10 1 0
BITMAP
3CF0
7FF8
C78C
030C
0F04
FBFC
C3FC
C70C
FDF8
78F0
ENDCHAR
STARTCHAR 00E7
ENCODING 231
SWIDTH 500 0
DWIDTH 9 0
BBX 8 14 1 -4
BITMAP
3C
7E
E2
C3
C0
C0
C0
C2
C2
64
38
20
18
78
ENDCHAR
STARTCHAR 00E8
ENCODING 232
SWIDTH 555 0
DWIDTH 10 0
BBX 8 14 1 0
BITMAP
20
30
08
00
7E
FF
C3
C7
DE
F8
E0
C0
FF
7F
ENDCHAR
STARTCHAR 00E9
ENCODING 233
SWIDTH 555 0
DWIDTH 10 0
BBX 8 12 1 1
BITMAP
10
20
7E
FE
C3
C7
DF
FC
F0
C0
FF
7F
ENDCHAR
STARTCHAR 00EA
ENCODING 234
SWIDTH 555 0
DWIDTH 10 0
BBX 8 14 1 0
BITMAP
08
14
22
00
7E
FE
C3
C7
DF
FC
F0
C0
FF
7F
ENDCHAR
STARTCHAR 00EB
ENCODING 235
SWIDTH 555 0
DWIDTH 10 0
BBX 8 13 1 0
BITMAP
6C
6C
00
7E
FE
C3
C7
DF
FC
F0
C0
FF
7F
ENDCHAR
STARTCHAR 00EC
ENCODING 236
SWIDTH 277 0
DWIDTH 5 0
BBX 2 14 1 0
BITMAP
80
C0
40
00
00
00
C0
C0
C0
C0
C0
C0
C0
C0
ENDCHAR
STARTCHAR 00ED
ENCODING 237
SWIDTH 277 0
DWIDTH 5 0
BBX 2 12 1 1
BITMAP
40
80
00
00
C0
C0
C0
C0
C0
C0
C0
C0
ENDCHAR
STARTCHAR 00EE
ENCODING 238
SWIDTH 277 0
DWIDTH 5 0
BBX 5 13 0 0
BITMAP
20
50
88
00
00
60
60
60
60
60
60
60
60
ENDCHAR
STARTCHAR 00EF
ENCODING 239
SWIDTH 277 0
DWIDTH 5 0
BBX 5 13 -1 0
BITMAP
D8
D8
00
00
00
30
30
30
30
30
30
30
30
ENDCHAR
STARTCHAR 00F0
ENCODING 240
SWIDTH 555 0
DWIDTH 10 0
BBX 9 13 1 0
BITMAP
3700
1C00
6600
0200
3F00
7F00
E380
C380
C180
C300
E300
7F00
3C00
ENDCHAR
STARTCHAR 00F1
ENCODING 241
SWIDTH 555 0
DWIDTH 10 0
BBX 8 13 1 0
BITMAP
30
7E
0C
7E
FF
C3
C3
C3
C3
C3
C3
C3
C3
ENDCHAR
STARTCHAR 00F2
ENCODING 242
SWIDTH 555 0
DWIDTH 10 0
BBX 8 14 1 0
BITMAP
20
30
08
00
7E
FF
C3
C3
C3
C3
C3
C3
FF
7E
ENDCHAR
STARTCHAR 00F3
ENCODING 243
SWIDTH 555 0
DWIDTH 10 0
BBX 8 12 1 1
BITMAP
10
20
7E
FF
C3
C3
C3
C3
C3
C3
FF
7E
ENDCHAR
STARTCHAR 00F4
ENCODING 244
SWIDTH 555 0
DWIDTH 10 0
BBX 8 13 1 0
BITMAP
08
14
22
7E
FF
C3
C3
C3
C3
C3
C3
FF
7E
ENDCHAR
STARTCHAR 00F5
ENCODING 245
SWIDTH 555 0
DWIDTH 10 0
BBX 8 13 1 0
BITMAP
30
7E
0C
7E
FF
C3
C3
C3
C3
C3
C3
FF
7E
ENDCHAR
STARTCHAR 00F6
ENCODING 246
SWIDTH 555 0
DWIDTH 10 0
BBX 8 13 1 0
BITMAP
6C
6C
00
7E
FF
C3
C3
C3
C3
C3
C3
FF
7E
ENDCHAR
STARTCHAR 00F7
ENCODING 247
SWIDTH 666 0
DWIDTH 12 0
BBX 10 8 1 2
BITMAP
0C00
0C00
FFC0
FFC0
0000
0000
0C00
0C00
ENDCHAR
STARTCHAR 00F8
ENCODING 248
SWIDTH 611 0
DWIDTH 11 0
BBX 10 10 0 0
BITMAP
1E40
3F80
6180
6380
E580
4980
5180
6380
7F00
DE00
ENDCHAR
STARTCHAR 00F9
ENCODING 249
SWIDTH 555 0
DWIDTH 10 0
BBX 8 14 1 0
BITMAP
20
30
08
00
C3
C3
C3
C3
C3
C3
C3
C3
FF
7E
ENDCHAR
STARTCHAR 00FA
ENCODING 250
SWIDTH 555 0
DWIDTH 10 0
BBX 8 13 1 1
BITMAP
10
20
00
C3
C3
C3
C3
C3
C3
C3
C3
FF
7E
ENDCHAR
STARTCHAR 00FB
ENCODING 251
SWIDTH 555 0
DWIDTH 10 0
BBX 8 14 1 0
BITMAP
08
14
22
00
C3
C3
C3
C3
C3
C3
C3
C3
FF
7E
ENDCHAR
STARTCHAR 00FC
ENCODING 252
SWIDTH 555 0
DWIDTH 10 0
BBX 8 13 1 0
BITMAP
6C
6C
00
C3
C3
C3
C3
C3
C3
C3
C3
FF
7E
ENDCHAR
STARTCHAR 00FD
ENCODING 253
SWIDTH 555 0
DWIDTH 10 0
BBX 8 16 1 -2
BITMAP
08
10
00
C3
C3
C3
C3
C3
C3
C3
C3
FF
7F
03
FF
FE
ENDCHAR
STARTCHAR 00FE
ENCODING 254
SWIDTH 555 0
DWIDTH 10 0
BBX 8 17 1 -4
BITMAP
C0
C0
C0
DC
FE
E7
C3
C3
C3
C3
E7
FE
DC
C0
C0
C0
C0
ENDCHAR
STARTCHAR 00FF
ENCODING 255
SWIDTH 555 0
DWIDTH 10 0
BBX 8 16 1 -3
BITMAP
6C
6C
00
C3
C3
C3
C3
C3
C3
C3
C3
FF
7F
03
FF
FE
ENDCHAR
STARTCHAR 0131
ENCODING 305
SWIDTH 222 0
DWIDTH 4 0
BBX 2 8 1 0
BITMAP
C0
C0
C0
C0
C0
C0
C0
C0
ENDCHAR
STARTCHAR 0141
ENCODING 321
SWIDTH 555 0
DWIDTH 10 0
BBX 10 13 0 0
BITMAP
3000
3000
3000
3000
3C00
3000
F000
3000
3000
3000
3000
3FC0
3FC0
ENDCHAR
STARTCHAR 0142
ENCODING 322
SWIDTH 222 0
DWIDTH 4 0
BBX 4 13 1 0
BITMAP
60
60
60
60
70
70
E0
60
60
60
60
60
60
ENDCHAR
STARTCHAR 0152
ENCODING 338
SWIDTH 1000 0
DWIDTH 18 0
BBX 16 13 1 0
BITMAP
1EFF
7FFF
61C0
C0C0
C0C0
C0C0
C0FF
C0FF
C0C0
C1C0
61C0
7FFF
1EFF
ENDCHAR
STARTCHAR 0153
ENCODING 339
SWIDTH 944 0
DWIDTH 17 0
BBX 15 10 1 0
BITMAP
3C78
7EFC
E3C6
C386
C182
C1FE
C3FE
E386
7FFC
3C78
ENDCHAR
STARTCHAR 0160
ENCODING 352
SWIDTH 555 0
DWIDTH 10 0
BBX 8 17 0 1
BITMAP
32
1C
00
00
7F
FF
C0
C0
C0
C0
FE
7F
03
03
03
FF
FE
ENDCHAR
STARTCHAR 0161
ENCODING 353
SWIDTH 500 0
DWIDTH 9 0
BBX 7 13 1 1
BITMAP
C8
70
00
7E
FE
C0
C0
FC
7E
06
06
FE
FC
ENDCHAR
STARTCHAR 0178
ENCODING 376
SWIDTH 611 0
DWIDTH 11 0
BBX 11 17 0 0
BITMAP
1B00
1B00
0000
0000
E0E0
60C0
7180
3380
3B00
1E00
1E00
0C00
0C00
0C00
0C00
0C00
0C00
ENDCHAR
STARTCHAR 017D
ENCODING 381
SWIDTH 555 0
DWIDTH 10 0
BBX 8 17 0 1
BITMAP
32
1C
00
00
FF
FF
03
07
0E
0C
18
38
30
60
E0
FF
FF
ENDCHAR
STARTCHAR 017E
ENCODING 382
SWIDTH 555 0
DWIDTH 10 0
BBX 8 13 0 1
BITMAP
32
1C
00
FF
FF
07
0E
1C
38
70
E0
FF
FF
ENDCHAR
STARTCHAR 0192
ENCODING 402
SWIDTH 555 0
DWIDTH 10 0
BBX 9 17 0 -4
BITMAP
0380
0780
0C00
0C00
0C00
3F00
3F00
0C00
0800
1800
1800
1800
1000
3000
3000
E000
E000
ENDCHAR
STARTCHAR 02C6
ENCODING 710
SWIDTH 444 0
DWIDTH 8 0
BBX 5 3 2 9
BITMAP
20
50
88
ENDCHAR
STARTCHAR 02C7
ENCODING 711
SWIDTH 333 0
DWIDTH 6 0
BBX 5 2 1 10
BITMAP
98
70
ENDCHAR
STARTCHAR 02C9
ENCODING 713
SWIDTH 444 0
DWIDTH 8 0
BBX 6 2 2 10
BITMAP
FC
FC
ENDCHAR
STARTCHAR 02D8
ENCODING 728
SWIDTH 500 0
DWIDTH 9 0
BBX 5 3 2 9
BITMAP
88
F8
70
ENDCHAR
STARTCHAR 02D9
ENCODING 729
SWIDTH 388 0
DWIDTH 7 0
BBX 1 2 4 10
BITMAP
80
80
ENDCHAR
STARTCHAR 02DA
ENCODING 730
SWIDTH 444 0
DWIDTH 8 0
BBX 3 3 3 9
BITMAP
C0
A0
C0
ENDCHAR
STARTCHAR 02DB
ENCODING 731
SWIDTH 222 0
DWIDTH 4 0
BBX 3 4 0 -4
BITMAP
40
C0
E0
60
ENDCHAR
STARTCHAR 02DC
ENCODING 732
SWIDTH 500 0
DWIDTH 9 0
BBX 7 3 1 9
BITMAP
70
FE
1C
ENDCHAR
STARTCHAR 02DD
ENCODING 733
SWIDTH 555 0
DWIDTH 10 0
BBX 6 3 2 10
BITMAP
64
48
90
ENDCHAR
STARTCHAR 0394
ENCODING 916
SWIDTH 611 0
DWIDTH 11 0
BBX 11 12 0 1
BITMAP
0600
0600
0F00
0B00
0B00
1180
1180
21C0
20C0
40C0
4060
FFE0
ENDCHAR
STARTCHAR 03A9
ENCODING 937
SWIDTH 777 0
DWIDTH 14 0
BBX 13 13 1 0
BITMAP
1F80
70E0
6030
C030
C018
C018
C018
C030
4030
7060
1980
F9F8
FDF8
ENDCHAR
STARTCHAR 03BC
ENCODING 956
SWIDTH 500 0
DWIDTH 9 0
BBX 7 12 1 -4
BITMAP
C6
C6
C6
C6
C6
C6
FE
FC
C0
C0
C0
C0
ENDCHAR
STARTCHAR 03C0
ENCODING 960
SWIDTH 555 0
DWIDTH 10 0
BBX 10 9 0 0
BITMAP
7FC0
7FC0
9200
1200
1600
1600
3640
67C0
6380
ENDCHAR
STARTCHAR 2010
ENCODING 8208
SWIDTH 333 0
DWIDTH 6 0
BBX 5 2 1 4
BITMAP
F8
F8
ENDCHAR
STARTCHAR 2013
ENCODING 8211
SWIDTH 611 0
DWIDTH 11 0
BBX 9 2 1 5
BITMAP
FF80
FF80
ENDCHAR
STARTCHAR 2014
ENCODING 8212
SWIDTH 500 0
DWIDTH 9 0
BBX 8 2 1 4
BITMAP
FF
FF
ENDCHAR
STARTCHAR 2018
ENCODING 8216
SWIDTH 166 0
DWIDTH 3 0
BBX 1 4 1 9
BITMAP
80
80
80
80
ENDCHAR
STARTCHAR 2019
ENCODING 8217
SWIDTH 166 0
DWIDTH 3 0
BBX 1 4 1 9
BITMAP
80
80
80
80
ENDCHAR
STARTCHAR 201A
ENCODING 8218
SWIDTH 222 0
DWIDTH 4 0
BBX 2 5 1 -2
BITMAP
C0
C0
C0
C0
80
ENDCHAR
STARTCHAR 201C
ENCODING 8220
SWIDTH 333 0
DWIDTH 6 0
BBX 4 4 1 9
BITMAP
90
A0
B0
B0
ENDCHAR
STARTCHAR 201D
ENCODING 8221
SWIDTH 333 0
DWIDTH 6 0
BBX 4 4 1 9
BITMAP
D0
F0
D0
A0
ENDCHAR
STARTCHAR 201E
ENCODING 8222
SWIDTH 388 0
DWIDTH 7 0
BBX 5 5 1 -2
BITMAP
D8
D8
D8
D8
90
ENDCHAR
STARTCHAR 2020
ENCODING 8224
SWIDTH 555 0
DWIDTH 10 0
BBX 8 16 1 -3
BITMAP
18
18
18
18
FF
FF
18
18
18
18
18
18
18
18
18
18
ENDCHAR
STARTCHAR 2021
ENCODING 8225
SWIDTH 555 0
DWIDTH 10 0
BBX 8 16 1 -3
BITMAP
18
18
18
18
FF
FF
18
18
18
18
FF
FF
18
18
18
18
ENDCHAR
STARTCHAR 2022
ENCODING 8226
SWIDTH 333 0
DWIDTH 6 0
BBX 5 5 1 4
BITMAP
70
F8
F8
F8
70
ENDCHAR
STARTCHAR 2026
ENCODING 8230
SWIDTH 722 0
DWIDTH 13 0
BBX 10 2 1 0
BITMAP
CCC0
CCC0
ENDCHAR
STARTCHAR 2030
ENCODING 8240
SWIDTH 1000 0
DWIDTH 18 0
BBX 18 13 0 0
BITMAP
384000
7C8000
CD8000
CD0000
CE0000
7E0000
3C0000
05C780
0BEFC0
0B78C0
1378C0
33EFC0
21C780
ENDCHAR
STARTCHAR 2039
ENCODING 8249
SWIDTH 333 0
DWIDTH 6 0
BBX 2 4 2 3
BITMAP
C0
80
80
C0
ENDCHAR
STARTCHAR 203A
ENCODING 8250
SWIDTH 333 0
DWIDTH 6 0
BBX 2 4 2 3
BITMAP
C0
40
40
C0
ENDCHAR
STARTCHAR 2044
ENCODING 8260
SWIDTH 166 0
DWIDTH 3 0
BBX 8 13 -3 -1
BITMAP
01
01
02
02
04
0C
08
10
10
20
60
40
C0
ENDCHAR
STARTCHAR 2122
ENCODING 8482
SWIDTH 888 0
DWIDTH 16 0
BBX 15 9 0 4
BITMAP
FF06
FF06
338E
338E
334E
3356
3336
3336
0020
ENDCHAR
STARTCHAR 2126
ENCODING 8486
SWIDTH 777 0
DWIDTH 14 0
BBX 13 13 1 0
BITMAP
1F80
70E0
6030
C030
C018
C018
C018
C030
4030
7060
1980
F9F8
FDF8
ENDCHAR
STARTCHAR 2202
ENCODING 8706
SWIDTH 500 0
DWIDTH 9 0
BBX 8 14 0 0
BITMAP
7C
06
03
03
03
03
3B
77
61
61
C3
62
66
3C
ENDCHAR
STARTCHAR 2206
ENCODING 8710
SWIDTH 611 0
DWIDTH 11 0
BBX 11 12 0 1
BITMAP
0600
0600
0F00
0B00
0B00
1180
1180
21C0
20C0
40C0
4060
FFE0
ENDCHAR
STARTCHAR 220F
ENCODING 8719
SWIDTH 833 0
DWIDTH 15 0
BBX 15 16 0 -2
BITMAP
FFFE
3FFC
3018
3018
3018
3018
3018
3018
3018
3018
3018
3018
3018
3018
381C
FC7E
ENDCHAR
STARTCHAR 2211
ENCODING 8721
SWIDTH 722 0
DWIDTH 13 0
BBX 12 16 1 -2
BITMAP
FFE0
E020
7000
3000
1800
1C00
0E00
0700
0200
0400
0800
1000
2010
6010
FFE0
FFE0
ENDCHAR
STARTCHAR 2212
ENCODING 8722
SWIDTH 611 0
DWIDTH 11 0
BBX 9 1 1 4
BITMAP
FF80
ENDCHAR
STARTCHAR 2219
ENCODING 8729
SWIDTH 222 0
DWIDTH 4 0
BBX 2 2 1 4
BITMAP
C0
C0
ENDCHAR
STARTCHAR 221A
ENCODING 8730
SWIDTH 555 0
DWIDTH 10 0
BBX 10 17 0 0
BITMAP
0040
0080
0080
0080
0080
0080
0080
2100
F100
1100
1900
0900
0D00
0500
0600
0200
0200
ENDCHAR
STARTCHAR 221E
ENCODING 8734
SWIDTH 722 0
DWIDTH 13 0
BBX 11 6 1 2
BITMAP
70C0
F9E0
CE60
8660
CA60
71C0
ENDCHAR
STARTCHAR 222B
ENCODING 8747
SWIDTH 277 0
DWIDTH 5 0
BBX 5 19 0 -2
BITMAP
38
28
60
60
60
60
60
60
70
70
70
70
70
70
60
60
60
E0
C0
ENDCHAR
STARTCHAR 2248
ENCODING 8776
SWIDTH 555 0
DWIDTH 10 0
BBX 10 4 0 3
BITMAP
7C40
0380
7000
CF80
ENDCHAR
STARTCHAR 2260
ENCODING 8800
SWIDTH 555 0
DWIDTH 10 0
BBX 10 10 0 -1
BITMAP
0100
0100
0200
FFC0
FFC0
FFC0
FFC0
1000
1000
2000
ENDCHAR
STARTCHAR 2264
ENCODING 8804
SWIDTH 555 0
DWIDTH 10 0
BBX 9 12 1 0
BITMAP
0080
0300
1C00
7000
C000
C000
3000
0C00
0300
0080
FF80
FF80
ENDCHAR
STARTCHAR 2265
ENCODING 8805
SWIDTH 555 0
DWIDTH 10 0
BBX 9 12 1 0
BITMAP
8000
E000
1800
0600
0180
0180
0E00
3800
C000
0000
FF80
FF80
ENDCHAR
STARTCHAR 22F2
ENCODING 8946
SWIDTH 555 0
DWIDTH 10 0
BBX 10 4 0 3
BITMAP
7C40
0380
7000
CF80
ENDCHAR
STARTCHAR 25CA
ENCODING 9674
SWIDTH 500 0
DWIDTH 9 0
BBX 8 14 1 0
BITMAP
10
28
28
44
44
82
83
82
82
44
44
28
28
10
ENDCHAR
STARTCHAR F000
ENCODING 61440
SWIDTH 833 0
DWIDTH 15 0
BBX 11 14 2 -1
BITMAP
0100
0300
0600
3BC0
FFE0
FFC0
FF80
FF80
FF80
FFC0
FFE0
7FC0
7FC0
3180
ENDCHAR
STARTCHAR F001
ENCODING 61441
SWIDTH 500 0
DWIDTH 9 0
BBX 8 13 0 1
BITMAP
3B
7B
60
60
FB
FB
63
63
63
63
63
63
63
ENDCHAR
STARTCHAR F002
ENCODING 61442
SWIDTH 500 0
DWIDTH 9 0
BBX 8 13 0 1
BITMAP
3B
7B
63
63
FB
FB
63
63
63
63
63
63
63
ENDCHAR
ENDFONT
